<svg width="11" height="11" viewBox="0 0 11 10" fill="none">
    <path
        fill-rule="evenodd"
        clip-rule="evenodd"
        d="M10.0296 5.01478C10.0296 4.11094 9.76653 3.26854 9.31285 2.55994L10.8451 0.939745L9.85144 0L8.407 1.52733C7.61378 0.858763 6.58927 0.455889 5.47066 0.455889C4.3054 0.455889 3.24224 0.893077 2.43627 1.61238L1.02738 0.00900881L0 0.911777L1.55402 2.68031C1.14615 3.36315 0.911777 4.16159 0.911777 5.01478C0.911777 6.00708 1.22881 6.92534 1.76712 7.67378L0.455886 9.06026L1.44956 10L2.72331 8.65316C3.48729 9.23095 4.43896 9.57366 5.47066 9.57366C6.55864 9.57366 7.55761 9.19254 8.34134 8.55653L9.44326 9.81056L10.4706 8.90779L9.26768 7.53877C9.74902 6.8161 10.0296 5.9482 10.0296 5.01478ZM5.47066 8.07366C7.16004 8.07366 8.52955 6.70415 8.52955 5.01478C8.52955 3.3254 7.16004 1.95589 5.47066 1.95589C3.78129 1.95589 2.41178 3.3254 2.41178 5.01478C2.41178 6.70415 3.78129 8.07366 5.47066 8.07366Z"
        fill="currentColor"
    />
</svg>
